<svg width="128" height="128" viewBox="0 0 128 128" fill="none" xmlns="http://www.w3.org/2000/svg">
<g clip-path="url(#clip0)">
<g filter="url(#filter0_d)">
<circle cx="116.981" cy="97.7404" r="5.48946" transform="rotate(-59.5 116.981 97.7404)" fill="black"/>
<rect x="85.8159" y="85.7536" width="10.9789" height="32.9367" transform="rotate(-59.5 85.8159 85.7536)" fill="black"/>
<circle cx="53.1279" cy="60.1279" r="39.4157" transform="rotate(-59.5 53.1279 60.1279)" fill="#76F7DF" stroke="black" stroke-width="9"/>
</g>
<path d="M37.8702 50.7953C37.343 50.2681 36.4883 50.2681 35.9611 50.7953L27.3697 59.3866C26.8425 59.9138 26.8425 60.7686 27.3697 61.2958C27.8969 61.823 28.7517 61.823 29.2789 61.2958L36.9156 53.6591L44.5524 61.2958C45.0796 61.823 45.9344 61.823 46.4616 61.2958C46.9888 60.7686 46.9888 59.9138 46.4616 59.3866L37.8702 50.7953ZM38.2656 52.6401V51.7499H35.5656V52.6401H38.2656Z" fill="black"/>
<path d="M70.807 50.7953C70.2798 50.2681 69.425 50.2681 68.8978 50.7953L60.3064 59.3866C59.7792 59.9138 59.7792 60.7686 60.3064 61.2958C60.8337 61.823 61.6884 61.823 62.2156 61.2958L69.8524 53.6591L77.4891 61.2958C78.0164 61.823 78.8711 61.823 79.3983 61.2958C79.9255 60.7686 79.9255 59.9138 79.3983 59.3866L70.807 50.7953ZM71.2024 52.6401V51.7499H68.5024V52.6401H71.2024Z" fill="black"/>
<mask id="path-6-inside-1" fill="white">
<path fill-rule="evenodd" clip-rule="evenodd" d="M75.4168 22.2889C94.7129 33.6552 102.128 57.4779 93.4603 77.5145L119.767 93.0105C122.38 94.5493 123.25 97.9143 121.711 100.527C120.172 103.139 116.807 104.009 114.195 102.47C114.192 102.468 114.189 102.466 114.185 102.465L87.8881 86.9742C74.5656 104.269 50.1351 109.333 30.839 97.9669C9.94111 85.6571 2.97908 58.7369 15.2889 37.839C27.5987 16.9411 54.5189 9.97907 75.4168 22.2889Z"/>
</mask>
<path d="M93.4603 77.5145L92.5425 77.1175L92.1919 77.9279L92.9528 78.3761L93.4603 77.5145ZM119.767 93.0105L120.275 92.1489L120.275 92.1489L119.767 93.0105ZM114.185 102.465L114.695 101.604L114.693 101.603L114.185 102.465ZM87.8881 86.9742L88.3956 86.1126L87.6347 85.6644L87.0959 86.364L87.8881 86.9742ZM94.3781 77.9115C103.243 57.4177 95.6605 33.0527 75.9243 21.4273L74.9093 23.1505C93.7653 34.2576 101.012 57.5381 92.5425 77.1175L94.3781 77.9115ZM120.275 92.1489L93.9678 76.6529L92.9528 78.3761L119.26 93.8722L120.275 92.1489ZM119.26 93.8722C121.396 95.1306 122.108 97.8826 120.849 100.019L122.573 101.034C124.392 97.946 123.363 93.9679 120.275 92.1489L119.26 93.8722ZM120.849 100.019C119.591 102.155 116.839 102.867 114.703 101.609L113.688 103.332C116.776 105.151 120.754 104.122 122.573 101.034L120.849 100.019ZM114.703 101.609C114.7 101.607 114.697 101.606 114.695 101.604L113.676 103.325C113.68 103.327 113.684 103.33 113.688 103.332L114.703 101.609ZM87.3805 87.8359L113.678 103.326L114.693 101.603L88.3956 86.1126L87.3805 87.8359ZM30.3315 98.8286C50.0676 110.454 75.0539 105.274 88.6803 87.5845L87.0959 86.364C74.0774 103.264 50.2026 108.212 31.3466 97.1053L30.3315 98.8286ZM14.4273 37.3315C1.83714 58.7053 8.95771 86.2385 30.3315 98.8286L31.3466 97.1053C10.9245 85.0758 4.12101 58.7686 16.1505 38.3466L14.4273 37.3315ZM75.9243 21.4273C54.5506 8.83714 27.0174 15.9577 14.4273 37.3315L16.1505 38.3466C28.18 17.9245 54.4872 11.121 74.9093 23.1505L75.9243 21.4273Z" fill="white" mask="url(#path-6-inside-1)"/>
</g>
<defs>
<filter id="filter0_d" x="-11" y="-5.24521e-05" width="139.497" height="128.256" filterUnits="userSpaceOnUse" color-interpolation-filters="sRGB">
<feFlood flood-opacity="0" result="BackgroundImageFix"/>
<feColorMatrix in="SourceAlpha" type="matrix" values="0 0 0 0 0 0 0 0 0 0 0 0 0 0 0 0 0 0 127 0"/>
<feOffset dy="4"/>
<feGaussianBlur stdDeviation="2"/>
<feColorMatrix type="matrix" values="0 0 0 0 0 0 0 0 0 0 0 0 0 0 0 0 0 0 0.25 0"/>
<feBlend mode="normal" in2="BackgroundImageFix" result="effect1_dropShadow"/>
<feBlend mode="normal" in="SourceGraphic" in2="effect1_dropShadow" result="shape"/>
</filter>
<clipPath id="clip0">
<rect width="128" height="128" fill="white"/>
</clipPath>
</defs>
</svg>
