<svg width="128" height="128" viewBox="0 0 128 128" fill="none" xmlns="http://www.w3.org/2000/svg">
<g clip-path="url(#clip0)">
<g filter="url(#filter0_d)">
<circle cx="116.981" cy="97.7404" r="5.48946" transform="rotate(-59.5 116.981 97.7404)" fill="black"/>
<rect x="85.8159" y="85.7536" width="10.9789" height="32.9367" transform="rotate(-59.5 85.8159 85.7536)" fill="black"/>
<circle cx="53.1279" cy="60.1279" r="39.4157" transform="rotate(-59.5 53.1279 60.1279)" fill="#76F7DF" stroke="black" stroke-width="9"/>
</g>
<path d="M37.8702 50.7953C37.343 50.2681 36.4883 50.2681 35.9611 50.7953L27.3697 59.3866C26.8425 59.9138 26.8425 60.7686 27.3697 61.2958C27.8969 61.823 28.7517 61.823 29.2789 61.2958L36.9157 53.659L44.5524 61.2958C45.0796 61.823 45.9344 61.823 46.4616 61.2958C46.9888 60.7686 46.9888 59.9138 46.4616 59.3866L37.8702 50.7953ZM38.2657 52.6401V51.7499H35.5657V52.6401H38.2657Z" fill="black"/>
<path d="M70.807 50.7953C70.2798 50.2681 69.425 50.2681 68.8978 50.7953L60.3065 59.3866C59.7792 59.9138 59.7792 60.7686 60.3065 61.2958C60.8337 61.823 61.6884 61.823 62.2156 61.2958L69.8524 53.659L77.4891 61.2958C78.0164 61.823 78.8711 61.823 79.3983 61.2958C79.9255 60.7686 79.9255 59.9138 79.3983 59.3866L70.807 50.7953ZM71.2024 52.6401V51.7499H68.5024V52.6401H71.2024Z" fill="black"/>
<mask id="path-6-inside-1" fill="white">
<path fill-rule="evenodd" clip-rule="evenodd" d="M75.4168 22.2889C94.7129 33.6552 102.128 57.4779 93.4603 77.5145L119.767 93.0105C122.38 94.5493 123.25 97.9143 121.711 100.527C120.172 103.139 116.807 104.009 114.195 102.47C114.192 102.468 114.189 102.466 114.185 102.465L87.8881 86.9742C74.5656 104.269 50.1351 109.333 30.839 97.9669C9.94111 85.6571 2.97908 58.7369 15.2889 37.839C27.5987 16.9411 54.5189 9.97907 75.4168 22.2889Z"/>
</mask>
<path d="M93.4603 77.5145L90.7069 76.3234L89.6551 78.7548L91.9377 80.0994L93.4603 77.5145ZM119.767 93.0105L121.29 90.4257L121.29 90.4256L119.767 93.0105ZM114.185 102.465L115.713 99.8827L115.708 99.8796L114.185 102.465ZM87.8881 86.9742L89.4107 84.3894L87.1281 83.0448L85.5115 85.1435L87.8881 86.9742ZM96.2137 78.7056C105.474 57.2973 97.5556 31.8479 76.9394 19.704L73.8942 24.8738C91.8702 35.4624 98.7809 57.6584 90.7069 76.3234L96.2137 78.7056ZM121.29 90.4256L94.9829 74.9296L91.9377 80.0994L118.245 95.5954L121.29 90.4256ZM118.245 95.5954C119.429 96.2932 119.824 97.8193 119.126 99.0039L124.296 102.049C126.676 98.0093 125.33 92.8053 121.29 90.4257L118.245 95.5954ZM119.126 99.0039C118.428 100.189 116.902 100.583 115.718 99.8854L112.672 105.055C116.712 107.435 121.916 106.089 124.296 102.049L119.126 99.0039ZM115.718 99.8854C115.716 99.8845 115.715 99.8836 115.713 99.8827L112.658 105.046C112.663 105.049 112.667 105.052 112.672 105.055L115.718 99.8854ZM86.3655 89.5591L112.663 105.049L115.708 99.8796L89.4107 84.3894L86.3655 89.5591ZM29.3164 100.552C49.9326 112.696 76.0303 107.283 90.2647 88.805L85.5115 85.1435C73.101 101.254 50.3376 105.971 32.3616 95.3821L29.3164 100.552ZM12.704 36.3164C-0.446729 58.6419 6.9909 87.4011 29.3164 100.552L32.3616 95.3821C12.8913 83.9132 6.40488 58.832 17.8738 39.3616L12.704 36.3164ZM76.9394 19.704C54.6139 6.55327 25.8547 13.9909 12.704 36.3164L17.8738 39.3616C29.3427 19.8913 54.4239 13.4049 73.8942 24.8738L76.9394 19.704Z" fill="white" mask="url(#path-6-inside-1)"/>
</g>
<defs>
<filter id="filter0_d" x="-11" y="-4.57764e-05" width="137.472" height="128.256" filterUnits="userSpaceOnUse" color-interpolation-filters="sRGB">
<feFlood flood-opacity="0" result="BackgroundImageFix"/>
<feColorMatrix in="SourceAlpha" type="matrix" values="0 0 0 0 0 0 0 0 0 0 0 0 0 0 0 0 0 0 127 0"/>
<feOffset dy="4"/>
<feGaussianBlur stdDeviation="2"/>
<feColorMatrix type="matrix" values="0 0 0 0 0 0 0 0 0 0 0 0 0 0 0 0 0 0 0.25 0"/>
<feBlend mode="normal" in2="BackgroundImageFix" result="effect1_dropShadow"/>
<feBlend mode="normal" in="SourceGraphic" in2="effect1_dropShadow" result="shape"/>
</filter>
<clipPath id="clip0">
<rect width="128" height="128" fill="white"/>
</clipPath>
</defs>
</svg>
