<svg width="48" height="48" viewBox="0 0 48 48" fill="none" xmlns="http://www.w3.org/2000/svg">
<g clip-path="url(#clip0)">
<rect width="48" height="48" fill="white" fill-opacity="0.0"/>
<g filter="url(#filter0_d)">
<circle cx="19.9067" cy="23.9067" r="14.5" transform="rotate(-59.5 19.9067 23.9067)" fill="#76F7DF" stroke="black" stroke-width="3"/>
<rect x="31.816" y="33.243" width="4" height="12" transform="rotate(-59.5 31.816 33.243)" fill="black"/>
<circle cx="43.1707" cy="37.6102" r="2" transform="rotate(-59.5 43.1707 37.6102)" fill="black"/>
</g>
<path d="M14.3536 20.6464C14.1583 20.4512 13.8417 20.4512 13.6464 20.6464L10.4645 23.8284C10.2692 24.0237 10.2692 24.3403 10.4645 24.5355C10.6597 24.7308 10.9763 24.7308 11.1716 24.5355L14 21.7071L16.8284 24.5355C17.0237 24.7308 17.3403 24.7308 17.5355 24.5355C17.7308 24.3403 17.7308 24.0237 17.5355 23.8284L14.3536 20.6464ZM14.5 22V21H13.5V22H14.5Z" fill="black"/>
<path d="M26.3536 20.6464C26.1583 20.4512 25.8417 20.4512 25.6464 20.6464L22.4645 23.8284C22.2692 24.0237 22.2692 24.3403 22.4645 24.5355C22.6597 24.7308 22.9763 24.7308 23.1716 24.5355L26 21.7071L28.8284 24.5355C29.0237 24.7308 29.3403 24.7308 29.5355 24.5355C29.7308 24.3403 29.7308 24.0237 29.5355 23.8284L26.3536 20.6464ZM26.5 22V21H25.5V22H26.5Z" fill="black"/>
</g>
<defs>
<filter id="filter0_d" x="-6" y="2" width="55.909" height="51.8134" filterUnits="userSpaceOnUse" color-interpolation-filters="sRGB">
<feFlood flood-opacity="0" result="BackgroundImageFix"/>
<feColorMatrix in="SourceAlpha" type="matrix" values="0 0 0 0 0 0 0 0 0 0 0 0 0 0 0 0 0 0 127 0"/>
<feOffset dy="4"/>
<feGaussianBlur stdDeviation="2"/>
<feColorMatrix type="matrix" values="0 0 0 0 0 0 0 0 0 0 0 0 0 0 0 0 0 0 0.25 0"/>
<feBlend mode="normal" in2="BackgroundImageFix" result="effect1_dropShadow"/>
<feBlend mode="normal" in="SourceGraphic" in2="effect1_dropShadow" result="shape"/>
</filter>
<clipPath id="clip0">
<rect width="48" height="48" fill="white"/>
</clipPath>
</defs>
</svg>
